<svg width="15" height="11" viewBox="0 0 15 11" fill="none" xmlns="http://www.w3.org/2000/svg">
<path d="M9.09378 10.8125C9.02386 10.8129 8.95455 10.7995 8.88983 10.773C8.8251 10.7466 8.76623 10.7077 8.71659 10.6584C8.6668 10.609 8.62728 10.5503 8.6003 10.4855C8.57333 10.4208 8.55945 10.3514 8.55945 10.2812C8.55945 10.2111 8.57333 10.1417 8.6003 10.0769C8.62728 10.0122 8.6668 9.95343 8.71659 9.90404L13.126 5.49998L8.71659 1.09591C8.61656 0.995878 8.56036 0.860199 8.56036 0.718726C8.56036 0.577254 8.61656 0.441575 8.71659 0.341539C8.81663 0.241503 8.95231 0.185303 9.09378 0.185303C9.23525 0.185303 9.37093 0.241503 9.47097 0.341539L14.2522 5.12279C14.302 5.17218 14.3415 5.23093 14.3685 5.29567C14.3955 5.36041 14.4094 5.42984 14.4094 5.49998C14.4094 5.57011 14.3955 5.63954 14.3685 5.70428C14.3415 5.76902 14.302 5.82778 14.2522 5.87716L9.47097 10.6584C9.42133 10.7077 9.36246 10.7466 9.29773 10.773C9.233 10.7995 9.16369 10.8129 9.09378 10.8125Z" fill="black"/>
<path d="M13.875 6.03125H1.125C0.984104 6.03125 0.848978 5.97528 0.74935 5.87565C0.649721 5.77602 0.59375 5.6409 0.59375 5.5C0.59375 5.3591 0.649721 5.22398 0.74935 5.12435C0.848978 5.02472 0.984104 4.96875 1.125 4.96875H13.875C14.0159 4.96875 14.151 5.02472 14.2507 5.12435C14.3503 5.22398 14.4062 5.3591 14.4062 5.5C14.4062 5.6409 14.3503 5.77602 14.2507 5.87565C14.151 5.97528 14.0159 6.03125 13.875 6.03125Z" fill="black"/>
</svg>
