<svg width="59" height="55" viewBox="0 0 59 55" fill="none" xmlns="http://www.w3.org/2000/svg">
<path d="M58.5 27.4514C58.5 42.3029 45.5508 54.4028 29.5 54.4028C13.4492 54.4028 0.5 42.3029 0.5 27.4514C0.5 12.5998 13.4492 0.5 29.5 0.5C45.5508 0.5 58.5 12.5998 58.5 27.4514Z" stroke="white"/>
<path d="M58.5 27.4514C58.5 42.3029 45.5508 54.4028 29.5 54.4028C13.4492 54.4028 0.5 42.3029 0.5 27.4514C0.5 12.5998 13.4492 0.5 29.5 0.5C45.5508 0.5 58.5 12.5998 58.5 27.4514Z" stroke="white"/>
<path d="M18.5686 19.6108C15.423 21.7028 12.4999 27 12.4999 27C10.6449 30.9278 14.3745 30.9672 14.3745 30.9672L16.3909 33.9557L19.7381 37.243L23.529 39.6338L27.7231 41H31.4736L34.5789 40.1888L38.6923 37.9688C38.6923 37.9688 41.0717 35.1511 41.596 35.3218C42.1202 35.4926 44.5802 32.2906 44.5802 32.2906L46.9999 28.4483L46.637 27.5517L44.1366 23.3678L42.4429 21.0624L39.6199 18.6289L37.0389 17.0493L33.6916 15.2135L29.1345 15L25.8276 15.4269L23.8112 16.2381L20.7615 18.1072C20.8722 18.0398 21.469 17.6819 18.5686 19.6108Z" fill="white" stroke="#41322F"/>
<path d="M29.3853 20.8779C25.8097 20.8779 22.9006 23.787 22.9006 27.3627C22.9006 30.9384 25.8096 33.8474 29.3853 33.8474C32.961 33.8474 35.87 30.9384 35.87 27.3627C35.87 23.787 32.961 20.8779 29.3853 20.8779ZM29.3853 30.6863C27.5526 30.6863 26.0616 29.1953 26.0616 27.3625C26.0616 25.5298 27.5526 24.0388 29.3853 24.0388C31.2181 24.0388 32.7091 25.5298 32.7091 27.3625C32.7091 29.1952 31.2181 30.6863 29.3853 30.6863Z" fill="#2856A7"/>
<path d="M48.7919 26.6529C48.7209 26.511 47.0174 23.1382 43.8314 19.7397C41.9384 17.7205 39.9081 16.1061 37.7969 14.9413C35.1028 13.4549 32.2763 12.7013 29.396 12.7013C26.5157 12.7013 23.6893 13.4549 20.9952 14.9414C18.8839 16.1062 16.8536 17.7206 14.9607 19.7398C11.7745 23.1383 10.0711 26.511 10.0001 26.6529C9.7777 27.0978 9.7777 27.6215 10.0001 28.0665C10.0711 28.2085 11.7745 31.5811 14.9607 34.9796C16.8537 36.9989 18.884 38.6133 20.9952 39.7781C23.6893 41.2645 26.5157 42.0182 29.396 42.0182C32.2763 42.0182 35.1027 41.2645 37.7969 39.7781C39.9081 38.6132 41.9385 36.9988 43.8314 34.9796C47.0174 31.5811 48.7209 28.2085 48.7919 28.0665C49.0144 27.6215 49.0144 27.0978 48.7919 26.6529ZM29.396 38.8572C25.1272 38.8572 21.0651 36.8452 17.3226 32.8772C15.2553 30.6851 13.8537 28.4607 13.2171 27.3596C14.7229 24.7562 20.5188 15.8623 29.396 15.8622C33.665 15.8622 37.7271 17.8742 41.4696 21.8423C43.5372 24.0347 44.9388 26.2594 45.575 27.3598C44.0692 29.9633 38.2733 38.8572 29.396 38.8572Z" fill="white"/>
</svg>
