<svg width="53" height="53" viewBox="0 0 53 53" fill="none" xmlns="http://www.w3.org/2000/svg">
<path d="M17.6736 53C20.0163 53 22.2631 52.0693 23.9197 50.4128C25.5762 48.7562 26.5069 46.5094 26.5069 44.1666V35.3333H17.6736C15.3308 35.3333 13.084 36.264 11.4275 37.9205C9.77088 39.5771 8.84023 41.8239 8.84023 44.1666C8.84023 46.5094 9.77088 48.7562 11.4275 50.4128C13.084 52.0693 15.3308 53 17.6736 53Z" fill="#0ACF83"/>
<path d="M8.84023 26.5C8.84023 24.1573 9.77088 21.9105 11.4275 20.2539C13.084 18.5973 15.3308 17.6667 17.6736 17.6667H26.5069V35.3334H17.6736C15.3308 35.3334 13.084 34.4027 11.4275 32.7461C9.77088 31.0896 8.84023 28.8428 8.84023 26.5Z" fill="#A259FF"/>
<path d="M8.84023 8.83333C8.84023 6.49178 9.76994 4.24604 11.425 2.58966C13.0801 0.933289 15.3251 0.00182934 17.6667 0L26.5 0V17.6667H17.6736C15.3308 17.6667 13.084 16.736 11.4275 15.0794C9.77088 13.4229 8.84023 11.1761 8.84023 8.83333Z" fill="#F24E1E"/>
<path d="M26.5069 0H35.3402C37.683 0 39.9298 0.930652 41.5863 2.58722C43.2429 4.24379 44.1736 6.49059 44.1736 8.83333C44.1736 11.1761 43.2429 13.4229 41.5863 15.0794C39.9298 16.736 37.683 17.6667 35.3402 17.6667H26.5069V0Z" fill="#FF7262"/>
<path d="M44.1736 26.5C44.1736 28.8428 43.2429 31.0896 41.5863 32.7461C39.9298 34.4027 37.683 35.3334 35.3402 35.3334C32.9975 35.3334 30.7507 34.4027 29.0941 32.7461C27.4375 31.0896 26.5069 28.8428 26.5069 26.5C26.5069 24.1573 27.4375 21.9105 29.0941 20.2539C30.7507 18.5973 32.9975 17.6667 35.3402 17.6667C37.683 17.6667 39.9298 18.5973 41.5863 20.2539C43.2429 21.9105 44.1736 24.1573 44.1736 26.5Z" fill="#1ABCFE"/>
</svg>
