<svg width="45" height="44" viewBox="0 0 45 44" fill="none" xmlns="http://www.w3.org/2000/svg">
<path d="M41.9818 11.2318C39.9698 7.77649 37.2406 5.04096 33.7936 3.02454C30.346 1.00801 26.5823 0 22.4998 0C18.4178 0 14.6529 1.00832 11.206 3.02454C7.75869 5.04086 5.02962 7.77649 3.01761 11.2318C1.0059 14.6869 0 18.46 0 22.5508C0 27.4649 1.43041 31.8837 4.29194 35.8085C7.15317 39.7335 10.8495 42.4495 15.3805 43.9568C15.9079 44.0549 16.2983 43.9859 16.5522 43.7515C16.8062 43.5168 16.933 43.2228 16.933 42.8709C16.933 42.8122 16.928 42.2838 16.9182 41.2853C16.9082 40.2868 16.9034 39.4156 16.9034 38.6724L16.2296 38.7892C15.8 38.8681 15.258 38.9015 14.6036 38.892C13.9496 38.8829 13.2706 38.8142 12.5676 38.6865C11.8643 38.5598 11.2101 38.2662 10.6046 37.8062C9.99942 37.3461 9.56978 36.744 9.31582 36.0006L9.02286 35.3249C8.82759 34.875 8.52017 34.3753 8.10018 33.8275C7.68019 33.2792 7.25548 32.9076 6.82584 32.7118L6.62072 32.5647C6.48404 32.4669 6.35721 32.3489 6.23993 32.212C6.12274 32.0751 6.03501 31.9381 5.97642 31.8009C5.91773 31.6636 5.96636 31.551 6.12285 31.4627C6.27933 31.3743 6.56213 31.3314 6.97247 31.3314L7.55818 31.4191C7.94882 31.4976 8.43202 31.732 9.00839 32.1238C9.58446 32.5152 10.058 33.0241 10.4292 33.6502C10.8786 34.453 11.4201 35.0648 12.0551 35.4857C12.6897 35.9067 13.3295 36.1168 13.9739 36.1168C14.6183 36.1168 15.1749 36.0679 15.6438 35.9705C16.1122 35.8725 16.5517 35.7254 16.962 35.5298C17.1378 34.2176 17.6164 33.2096 18.3974 32.505C17.2842 32.3878 16.2835 32.2112 15.3945 31.9764C14.5061 31.7413 13.5881 31.3597 12.641 30.8307C11.6933 30.3023 10.9072 29.6463 10.2824 28.8636C9.65752 28.0805 9.14466 27.0525 8.74458 25.7803C8.34429 24.5077 8.14409 23.0397 8.14409 21.3758C8.14409 19.0067 8.91574 16.9907 10.4587 15.3266C9.73591 13.5455 9.80415 11.5488 10.6636 9.33679C11.23 9.16041 12.07 9.29277 13.1832 9.73306C14.2965 10.1736 15.1116 10.5509 15.6294 10.8638C16.1472 11.1765 16.5621 11.4416 16.8746 11.6565C18.6914 11.1477 20.5662 10.8933 22.4996 10.8933C24.433 10.8933 26.3082 11.1477 28.1251 11.6565L29.2383 10.9521C29.9996 10.4821 30.8986 10.0514 31.9331 9.65984C32.9683 9.2685 33.7598 9.16072 34.3069 9.3371C35.1855 11.5492 35.2638 13.5458 34.5408 15.3269C36.0837 16.991 36.8556 19.0075 36.8556 21.3761C36.8556 23.04 36.6547 24.5126 36.255 25.795C35.8548 27.0777 35.3376 28.1047 34.703 28.8783C34.0677 29.6518 33.2766 30.3027 32.3295 30.831C31.3822 31.3596 30.4638 31.7412 29.5754 31.9763C28.6866 32.2114 27.6858 32.3881 26.5727 32.5055C27.5879 33.3861 28.0956 34.7761 28.0956 36.6749V42.8701C28.0956 43.222 28.2177 43.5159 28.4622 43.7507C28.7063 43.985 29.0918 44.0541 29.6192 43.9558C34.1509 42.4488 37.8471 39.7327 40.7083 35.8076C43.5691 31.8829 45 27.464 45 22.55C44.999 18.4597 43.9926 14.6869 41.9818 11.2318Z" fill="white" fill-opacity="0.61"/>
</svg>
