<svg width="59" height="55" viewBox="0 0 59 55" fill="none" xmlns="http://www.w3.org/2000/svg">
<path d="M58.5 27.4514C58.5 42.3029 45.5508 54.4028 29.5 54.4028C13.4492 54.4028 0.5 42.3029 0.5 27.4514C0.5 12.5998 13.4492 0.5 29.5 0.5C45.5508 0.5 58.5 12.5998 58.5 27.4514Z" stroke="white"/>
<path d="M46.451 17.4628C44.752 14.5517 42.4474 12.247 39.5366 10.5482C36.6253 8.84925 33.4471 8 29.9997 8C26.5527 8 23.3734 8.84951 20.4628 10.5482C17.5517 12.2469 15.2472 14.5517 13.5482 17.4628C11.8494 20.3738 11 23.5526 11 26.9992C11 31.1393 12.2079 34.8622 14.6243 38.1688C17.0404 41.4757 20.1617 43.7639 23.9879 45.0338C24.4333 45.1164 24.763 45.0583 24.9773 44.8608C25.1918 44.6631 25.2989 44.4154 25.2989 44.1189C25.2989 44.0695 25.2946 43.6243 25.2864 42.7831C25.2779 41.9418 25.2739 41.2079 25.2739 40.5816L24.7049 40.6801C24.3421 40.7465 23.8844 40.7747 23.3319 40.7667C22.7795 40.759 22.2062 40.7011 21.6126 40.5935C21.0187 40.4868 20.4663 40.2395 19.955 39.8519C19.4439 39.4643 19.0811 38.957 18.8666 38.3307L18.6193 37.7614C18.4544 37.3824 18.1948 36.9613 17.8401 36.4998C17.4854 36.0379 17.1268 35.7248 16.764 35.5599L16.5908 35.4359C16.4754 35.3535 16.3683 35.2541 16.2692 35.1388C16.1703 35.0234 16.0962 34.908 16.0467 34.7924C15.9972 34.6767 16.0382 34.5819 16.1704 34.5074C16.3025 34.433 16.5413 34.3969 16.8878 34.3969L17.3824 34.4708C17.7123 34.5369 18.1203 34.7344 18.607 35.0644C19.0935 35.3942 19.4934 35.8229 19.8068 36.3505C20.1863 37.0268 20.6436 37.5422 21.1798 37.8969C21.7157 38.2516 22.2559 38.4286 22.8001 38.4286C23.3442 38.4286 23.8142 38.3873 24.2102 38.3053C24.6058 38.2228 24.9769 38.0988 25.3234 37.934C25.4718 36.8285 25.876 35.9793 26.5355 35.3856C25.5955 35.2868 24.7504 35.1381 23.9997 34.9402C23.2495 34.7422 22.4743 34.4207 21.6745 33.975C20.8743 33.5299 20.2105 32.9771 19.6829 32.3177C19.1552 31.658 18.7221 30.7918 18.3843 29.7201C18.0462 28.6479 17.8772 27.411 17.8772 26.0092C17.8772 24.0132 18.5288 22.3147 19.8317 20.9128C19.2214 19.4122 19.279 17.7299 20.0048 15.8663C20.4831 15.7177 21.1924 15.8292 22.1324 16.2002C23.0725 16.5713 23.7609 16.8892 24.1981 17.1528C24.6353 17.4163 24.9856 17.6396 25.2496 17.8207C26.7837 17.392 28.3669 17.1776 29.9995 17.1776C31.6322 17.1776 33.2157 17.392 34.7499 17.8207L35.69 17.2272C36.3328 16.8312 37.0919 16.4683 37.9655 16.1385C38.8397 15.8088 39.5081 15.7179 39.9701 15.8666C40.712 17.7303 40.7781 19.4124 40.1676 20.913C41.4704 22.315 42.1223 24.0139 42.1223 26.0095C42.1223 27.4113 41.9526 28.652 41.6151 29.7324C41.2772 30.813 40.8404 31.6783 40.3046 32.3301C39.7681 32.9818 39.1 33.5302 38.3003 33.9752C37.5003 34.4206 36.7248 34.7421 35.9746 34.9402C35.224 35.1382 34.379 35.2871 33.439 35.3861C34.2963 36.1279 34.725 37.299 34.725 38.8987V44.1182C34.725 44.4147 34.8281 44.6623 35.0345 44.8601C35.2407 45.0576 35.5662 45.1157 36.0116 45.033C39.8383 43.7633 42.9596 41.475 45.3756 38.1681C47.7914 34.8615 48.9997 31.1386 48.9997 26.9985C48.9989 23.5523 48.149 20.3738 46.451 17.4628Z" fill="white"/>
</svg>
