<svg width="33" height="36" viewBox="0 0 33 36" fill="none" xmlns="http://www.w3.org/2000/svg">
<path d="M22.7682 23.7857C26.7637 17.7744 26.2614 18.5244 26.3765 18.3677C27.8312 16.4005 28.6 14.0851 28.6 11.6719C28.6 5.27203 23.1835 0 16.5 0C9.83825 0 4.4 5.26163 4.4 11.6719C4.4 14.0836 5.18496 16.4595 6.68727 18.4532L10.2316 23.7857C6.44211 24.3441 0 26.008 0 29.6719C0 31.0075 0.909187 32.9108 5.24055 34.394C8.26496 35.4296 12.2636 36 16.5 36C24.4218 36 33 33.8574 33 29.6719C33 26.0074 26.5654 24.3452 22.7682 23.7857ZM8.52493 17.293C8.51283 17.2749 8.50021 17.2571 8.48701 17.2397C7.2369 15.5907 6.6 13.6365 6.6 11.6719C6.6 6.39717 11.0298 2.10938 16.5 2.10938C21.9589 2.10938 26.4 6.39907 26.4 11.6719C26.4 13.6396 25.7751 15.5276 24.5926 17.1331C24.4867 17.2671 25.0395 16.4436 16.5 29.2914L8.52493 17.293ZM16.5 33.8906C7.84711 33.8906 2.2 31.452 2.2 29.6719C2.2 28.4754 5.10165 26.5082 11.5315 25.7413L15.5723 31.8208C15.7743 32.1247 16.1241 32.3086 16.4999 32.3086C16.8758 32.3086 17.2256 32.1246 17.4275 31.8208L21.4683 25.7413C27.8983 26.5082 30.8 28.4754 30.8 29.6719C30.8 31.4369 25.2037 33.8906 16.5 33.8906Z" fill="#60B0F8"/>
</svg>
