<svg width="38" height="30" viewBox="0 0 38 30" fill="none" xmlns="http://www.w3.org/2000/svg">
<path d="M34.4375 16.1183V3.36677C34.4361 2.88387 34.3331 2.40682 34.1355 1.96731C33.938 1.5278 33.6503 1.13591 33.2916 0.817676C32.6868 0.2872 31.9126 -0.0032915 31.1125 4.21742e-05H3.325C2.52654 -0.00402811 1.75397 0.286649 1.15188 0.817676C0.791193 1.1346 0.50176 1.5261 0.303067 1.96581C0.104374 2.40551 0.00103177 2.88322 0 3.36677L0 21.7635C0.00144077 22.2464 0.104371 22.7235 0.301951 23.163C0.49953 23.6025 0.787233 23.9944 1.14594 24.3126C1.75069 24.8431 2.52488 25.1336 3.325 25.1303H23.6372C24.1704 26.5586 25.1196 27.7892 26.3592 28.6589C27.5988 29.5285 29.0701 29.9963 30.5781 30V27.5952C29.5744 27.5999 28.592 27.3015 27.7567 26.7381C26.9213 26.1746 26.2708 25.3717 25.8884 24.4321C25.5059 23.4924 25.4089 22.4585 25.6097 21.4627C25.8105 20.4669 26.3 19.5544 27.0156 18.8417C27.4952 18.3589 28.0667 17.9798 28.6955 17.7277C29.3243 17.4755 29.9971 17.3554 30.6731 17.3748C32.0203 17.4341 33.2914 18.0232 34.2162 19.0169C35.1409 20.0105 35.6464 21.3302 35.625 22.6954V24.8898C35.625 25.0492 35.5624 25.2022 35.4511 25.3149C35.3397 25.4276 35.1887 25.491 35.0312 25.491C34.8738 25.491 34.7228 25.4276 34.6114 25.3149C34.5001 25.2022 34.4375 25.0492 34.4375 24.8898V22.485C34.44 21.6327 34.1681 20.8028 33.663 20.121C33.1578 19.4392 32.447 18.9427 31.6382 18.7067C30.8294 18.4707 29.9666 18.5081 29.1806 18.8131C28.3947 19.1182 27.7283 19.6743 27.2825 20.3973C26.8367 21.1203 26.6358 21.9707 26.7102 22.8196C26.7845 23.6686 27.1302 24.4699 27.6947 25.1021C28.2592 25.7343 29.0118 26.163 29.8386 26.3232C30.6653 26.4835 31.5211 26.3665 32.2762 25.99C32.5325 26.6364 33.0026 27.1727 33.6061 27.5071C34.2096 27.8415 34.9091 27.9533 35.585 27.8234C36.2609 27.6935 36.8712 27.3299 37.3117 26.7948C37.7522 26.2598 37.9955 25.5864 38 24.8898V22.6954C37.9986 21.3845 37.6715 20.0951 37.049 18.9458C36.4264 17.7964 35.5284 16.8241 34.4375 16.1183ZM29.7825 2.40485L19.1544 11.0682C18.6045 11.512 17.922 11.7537 17.2188 11.7537C16.5155 11.7537 15.833 11.512 15.2831 11.0682L4.655 2.40485H29.7825ZM32.0625 15.1323C31.6193 15.0354 31.168 14.981 30.7147 14.97C28.7926 14.9316 26.932 15.6567 25.5312 16.99L21.7253 14.2846L20.3597 16.2565L24.0647 18.8838C23.4688 19.9901 23.1583 21.2308 23.1622 22.491V22.7315H4.95781L14.0837 16.2565L12.7241 14.2846L2.375 21.6192V3.6313L13.7928 12.9379C14.7658 13.7242 15.9738 14.1525 17.2188 14.1525C18.4637 14.1525 19.6717 13.7242 20.6447 12.9379L32.0625 3.6313V15.1323ZM30.5781 23.988C30.2845 23.988 29.9976 23.8998 29.7534 23.7347C29.5093 23.5695 29.3191 23.3348 29.2067 23.0602C29.0944 22.7855 29.065 22.4833 29.1223 22.1918C29.1795 21.9002 29.3209 21.6324 29.5285 21.4222C29.7361 21.212 30.0006 21.0688 30.2885 21.0109C30.5765 20.9529 30.8749 20.9826 31.1462 21.0964C31.4174 21.2101 31.6492 21.4028 31.8123 21.65C31.9754 21.8971 32.0625 22.1877 32.0625 22.485C32.0625 22.8836 31.9061 23.2659 31.6277 23.5478C31.3494 23.8296 30.9718 23.988 30.5781 23.988Z" fill="#60B0F8"/>
</svg>
