<svg xmlns="http://www.w3.org/2000/svg" xmlns:xlink="http://www.w3.org/1999/xlink" xmlns:serif="http://www.serif.com/" viewBox="0 0 32 40" version="1.1" xml:space="preserve" style="" x="0px" y="0px" fill-rule="evenodd" clip-rule="evenodd" stroke-linejoin="round" stroke-miterlimit="2"><g transform="matrix(1,0,0,1,-48,-49)"><path d="M73.88,75.372L74.508,76.459C74.646,76.698 74.952,76.78 75.191,76.642C75.43,76.504 75.512,76.198 75.374,75.959L74.746,74.872C75.475,74.189 75.667,73.07 75.146,72.168C74.54,71.118 73.194,70.757 72.143,71.364L72.143,71.364C71.092,71.97 70.732,73.316 71.339,74.367C71.859,75.269 72.924,75.662 73.88,75.372ZM72.643,72.23C73.216,71.899 73.95,72.096 74.28,72.668C74.611,73.241 74.414,73.975 73.842,74.305C73.269,74.636 72.535,74.439 72.205,73.867C71.874,73.294 72.07,72.56 72.643,72.23L72.643,72.23Z"/><path d="M50.802,63.822C50.802,65.563 51.139,67.226 51.751,68.749L50.5,68.749C50.102,68.749 49.721,68.907 49.439,69.188C49.158,69.47 49,69.851 49,70.249C49,72.105 49,76.06 49,77.916C49,78.314 49.158,78.695 49.439,78.976C49.721,79.258 50.102,79.416 50.5,79.416L77.5,79.416C77.898,79.416 78.279,79.258 78.561,78.976C78.842,78.695 79,78.314 79,77.916L79,70.249C79,69.851 78.842,69.47 78.561,69.188C78.279,68.907 77.898,68.749 77.5,68.749L76.335,68.749C76.947,67.226 77.284,65.563 77.284,63.822C77.284,56.513 71.351,50.58 64.043,50.58C56.735,50.58 50.802,56.513 50.802,63.822ZM68.102,69.749L68.102,78.416L50.5,78.416C50.367,78.416 50.24,78.363 50.146,78.269C50.053,78.176 50,78.048 50,77.916L50,70.249C50,70.116 50.053,69.989 50.146,69.896C50.24,69.802 50.367,69.749 50.5,69.749L68.102,69.749ZM69.102,69.749L77.5,69.749C77.633,69.749 77.76,69.802 77.854,69.896C77.947,69.989 78,70.116 78,70.249L78,77.916C78,78.048 77.947,78.176 77.854,78.269C77.76,78.363 77.633,78.416 77.5,78.416L69.102,78.416L69.102,69.749ZM57.712,64.322L51.812,64.322C51.875,65.891 52.234,67.385 52.835,68.749L58.152,68.749C57.894,67.375 57.74,65.883 57.712,64.322ZM59.17,68.749L63.543,68.749L63.543,64.322L58.712,64.322C58.741,65.888 58.901,67.382 59.17,68.749ZM69.373,64.322L64.543,64.322L64.543,68.749L68.916,68.749C69.185,67.382 69.345,65.888 69.373,64.322ZM76.274,64.322L70.374,64.322C70.346,65.883 70.192,67.375 69.934,68.749L75.251,68.749C75.852,67.385 76.211,65.891 76.274,64.322ZM54.557,56.087C52.933,58.076 51.922,60.584 51.812,63.322L57.712,63.322C57.748,61.262 58.006,59.324 58.433,57.616C56.972,57.237 55.66,56.716 54.557,56.087ZM68.683,57.842C67.389,58.11 65.996,58.27 64.543,58.299L64.543,63.322L69.373,63.322C69.338,61.341 69.092,59.479 68.683,57.842ZM73.528,56.087C73.522,56.091 73.516,56.094 73.509,56.098C72.411,56.722 71.106,57.24 69.653,57.616C70.08,59.324 70.338,61.262 70.374,63.322L76.274,63.322C76.164,60.583 75.152,58.075 73.528,56.087ZM59.403,57.842C58.993,59.479 58.748,61.341 58.712,63.322L63.543,63.322L63.543,58.299C62.09,58.27 60.698,58.11 59.403,57.842ZM63.543,51.636C62.601,51.845 61.751,52.638 61.022,53.805C60.494,54.651 60.037,55.691 59.672,56.878C60.883,57.124 62.185,57.27 63.543,57.299L63.543,51.636ZM64.543,51.636L64.543,57.299C65.901,57.27 67.203,57.124 68.414,56.877C68.049,55.691 67.592,54.651 67.064,53.805C66.335,52.638 65.485,51.845 64.543,51.636ZM61.243,51.903C58.916,52.448 56.843,53.659 55.237,55.322C56.235,55.867 57.405,56.32 58.698,56.653C59.095,55.345 59.596,54.2 60.174,53.275C60.505,52.744 60.864,52.284 61.243,51.903ZM66.843,51.903C67.222,52.284 67.581,52.744 67.912,53.275C68.49,54.2 68.991,55.345 69.388,56.653C70.681,56.319 71.851,55.867 72.849,55.322C71.243,53.658 69.17,52.448 66.843,51.903Z"/></g><text x="0" y="47" fill="#000000" font-size="5px" font-weight="bold" font-family="'Helvetica Neue', Helvetica, Arial-Unicode, Arial, Sans-serif">Created by Arif Subekti</text><text x="0" y="52" fill="#000000" font-size="5px" font-weight="bold" font-family="'Helvetica Neue', Helvetica, Arial-Unicode, Arial, Sans-serif">from the Noun Project</text></svg>