<svg width="32" height="31" viewBox="0 0 32 31" fill="none" xmlns="http://www.w3.org/2000/svg">
<path d="M15.9998 31H15.9934C13.4968 30.999 11.0215 30.4236 8.80322 29.3317L1.96533 30.8505C1.5481 30.943 1.11108 30.8207 0.807373 30.5263C0.503662 30.2319 0.375488 29.8061 0.467285 29.398L1.94897 22.8215C0.676025 20.526 0.00390625 18.0119 0.000244141 15.519C0 15.5104 0 15.5018 0 15.4934C0.00170899 11.3623 1.6748 7.47161 4.71069 4.53837C7.73975 1.6118 11.7488 0 15.9995 0C20.2598 0.00166878 24.2625 1.6149 27.2715 4.54218C30.3223 7.51023 32.0015 11.404 32 15.5058C31.9988 18.6057 31.0469 21.6017 29.2473 24.1694C28.8574 24.7259 28.0796 24.8682 27.5098 24.4875C26.9402 24.1067 26.7942 23.3472 27.1841 22.7908C28.698 20.6304 29.4988 18.111 29.5 15.5049C29.5012 12.0569 28.0833 8.77779 25.5071 6.27152C22.9697 3.80291 19.593 2.44262 15.999 2.44119C8.56665 2.44119 2.51562 8.28431 2.5 15.4715C2.5 15.4794 2.50024 15.487 2.50024 15.4946C2.49927 17.7194 3.14014 19.9751 4.35327 22.0179C4.51025 22.2823 4.56006 22.5943 4.49268 22.8926L3.33228 28.0432L8.69727 26.8514C8.99341 26.7858 9.30396 26.8276 9.57104 26.9689C11.5312 28.0081 13.7522 28.5579 15.9939 28.5588H15.9995C18.4373 28.5588 20.8313 27.9151 22.9226 26.6976C23.5154 26.3522 24.2827 26.5417 24.6362 27.1208C24.9897 27.6999 24.7959 28.4489 24.2029 28.7943C21.7246 30.2371 18.8879 31 15.9995 31H15.9998ZM12.4695 9.28987C12.1953 8.69674 11.9067 8.67647 11.646 8.66622H10.9446C10.7004 8.66622 10.304 8.75538 9.96875 9.11178C9.6333 9.46819 8.68774 10.3298 8.68774 12.0822C8.68774 13.8347 9.99927 15.5282 10.1821 15.7662C10.3652 16.0036 12.7141 19.7147 16.4338 21.1425C19.5254 22.329 20.1545 22.093 20.8254 22.0334C21.4966 21.9743 22.991 21.1721 23.2957 20.3403C23.6008 19.5088 23.6008 18.796 23.5093 18.647C23.418 18.4987 23.1738 18.4095 22.8079 18.2314C22.4417 18.0534 20.6479 17.1768 20.3125 17.058C19.9771 16.9393 19.7332 16.88 19.489 17.2366C19.2449 17.5928 18.5261 18.4164 18.3125 18.6539C18.0991 18.892 17.8855 18.9216 17.5195 18.7435C17.1536 18.5647 15.9868 18.1821 14.5886 16.9689C13.5005 16.0246 12.7456 14.8207 12.532 14.464C12.3184 14.1079 12.509 13.9148 12.6926 13.7372C12.8569 13.5777 13.0793 13.3595 13.2625 13.1517C13.4451 12.9438 13.4973 12.7953 13.6191 12.5576C13.7412 12.3199 13.6802 12.112 13.5889 11.9337C13.4973 11.7556 12.7947 9.99409 12.4692 9.28987" fill="#60B0F8"/>
</svg>
