<svg width="254" height="247" viewBox="0 0 254 247" fill="none" xmlns="http://www.w3.org/2000/svg">
<path d="M197.496 0H56.4728C25.2837 0 0 25.2837 0 56.4728V189.953C0 221.142 25.2837 246.426 56.4728 246.426H197.496C228.685 246.426 253.969 221.142 253.969 189.953V56.4728C253.969 25.2837 228.685 0 197.496 0Z" fill="#FD10B3"/>
<path d="M197.496 11.7578H56.4728C31.7774 11.7578 11.7578 31.7774 11.7578 56.4728V189.953C11.7578 214.649 31.7774 234.668 56.4728 234.668H197.496C222.191 234.668 242.211 214.649 242.211 189.953V56.4728C242.211 31.7774 222.191 11.7578 197.496 11.7578Z" fill="#36001E"/>
<path d="M197.496 11.7578H56.4728C31.7774 11.7578 11.7578 31.7774 11.7578 56.4728V189.953C11.7578 214.649 31.7774 234.668 56.4728 234.668H197.496C222.191 234.668 242.211 214.649 242.211 189.953V56.4728C242.211 31.7774 222.191 11.7578 197.496 11.7578Z" fill="url(#paint0_angular_115_534)" fill-opacity="0.2"/>
<g filter="url(#filter0_i_115_534)">
<path d="M100.77 116.743L130.341 165.538C130.457 165.685 130.53 165.86 130.553 166.046C130.575 166.231 130.546 166.419 130.469 166.589C130.392 166.759 130.27 166.904 130.116 167.009C129.961 167.114 129.781 167.175 129.595 167.184H108.389C107.043 167.184 106.297 166.738 105.85 165.838C99.2771 154.192 92.7045 142.54 85.9849 130.294H85.832C79.8591 142.246 73.2865 154.339 67.0195 165.991C66.8443 166.386 66.5458 166.715 66.1685 166.927C65.7913 167.139 65.3557 167.223 64.9267 167.167H44.7679C43.7214 167.167 43.7214 166.267 44.18 165.673L72.8573 118.184L44.7679 70.8878C44.6456 70.7545 44.5666 70.5871 44.5415 70.4079C44.5164 70.2287 44.5463 70.0461 44.6272 69.8842C44.7081 69.7224 44.8363 69.5889 44.9947 69.5015C45.1532 69.414 45.3344 69.3768 45.5145 69.3946H66.5727C67.6192 69.3946 68.066 69.5416 68.5128 70.5704C74.4857 82.3694 81.5052 94.1683 87.631 105.967H87.778C93.604 94.0155 100.171 82.5163 106.297 70.5704C106.743 69.8238 107.043 69.3946 108.389 69.3946H127.655C128.695 69.3946 128.83 70.1412 128.242 71.0348L100.77 116.743Z" fill="#EFC5E0"/>
</g>
<g filter="url(#filter1_i_115_534)">
<path d="M132.128 130.753C132.128 109.395 148.107 91.4758 175.438 91.4758C176.614 91.4758 178.125 91.6228 180.365 91.7697V62.3752C180.349 62.2339 180.365 62.0909 180.412 61.9567C180.459 61.8225 180.536 61.7006 180.636 61.6C180.737 61.4995 180.859 61.4229 180.993 61.3759C181.127 61.329 181.27 61.3129 181.411 61.3288H200.224C200.97 61.3288 201.117 61.6286 201.117 62.2282V150.465C201.078 154.107 201.274 157.748 201.705 161.364C201.705 162.111 201.552 162.411 200.659 162.71C191.362 166.658 181.364 168.69 171.264 168.683C149.154 168.683 132.128 156.132 132.128 130.753ZM180.365 109.542C178.872 108.954 176.932 108.795 174.839 108.795C163.34 108.795 153.486 115.814 153.486 129.706C153.486 144.492 161.999 150.912 173.345 150.912C175.885 150.912 178.278 150.765 180.365 150.012V109.542Z" fill="#EFC5E0"/>
</g>
<defs>
<filter id="filter0_i_115_534" x="43.8875" y="69.3903" width="86.6727" height="101.794" filterUnits="userSpaceOnUse" color-interpolation-filters="sRGB">
<feFlood flood-opacity="0" result="BackgroundImageFix"/>
<feBlend mode="normal" in="SourceGraphic" in2="BackgroundImageFix" result="shape"/>
<feColorMatrix in="SourceAlpha" type="matrix" values="0 0 0 0 0 0 0 0 0 0 0 0 0 0 0 0 0 0 127 0" result="hardAlpha"/>
<feOffset dy="4"/>
<feGaussianBlur stdDeviation="2"/>
<feComposite in2="hardAlpha" operator="arithmetic" k2="-1" k3="1"/>
<feColorMatrix type="matrix" values="0 0 0 0 0 0 0 0 0 0 0 0 0 0 0 0 0 0 0.25 0"/>
<feBlend mode="normal" in2="shape" result="effect1_innerShadow_115_534"/>
</filter>
<filter id="filter1_i_115_534" x="132.128" y="61.3228" width="69.5769" height="111.361" filterUnits="userSpaceOnUse" color-interpolation-filters="sRGB">
<feFlood flood-opacity="0" result="BackgroundImageFix"/>
<feBlend mode="normal" in="SourceGraphic" in2="BackgroundImageFix" result="shape"/>
<feColorMatrix in="SourceAlpha" type="matrix" values="0 0 0 0 0 0 0 0 0 0 0 0 0 0 0 0 0 0 127 0" result="hardAlpha"/>
<feOffset dy="4"/>
<feGaussianBlur stdDeviation="2"/>
<feComposite in2="hardAlpha" operator="arithmetic" k2="-1" k3="1"/>
<feColorMatrix type="matrix" values="0 0 0 0 0 0 0 0 0 0 0 0 0 0 0 0 0 0 0.25 0"/>
<feBlend mode="normal" in2="shape" result="effect1_innerShadow_115_534"/>
</filter>
<radialGradient id="paint0_angular_115_534" cx="0" cy="0" r="1" gradientUnits="userSpaceOnUse" gradientTransform="translate(126.984 123.213) rotate(-89.9919) scale(111.213 114.976)">
<stop stop-color="#2A0015"/>
<stop offset="0.0996556" stop-color="#2D0017"/>
<stop offset="0.24649" stop-color="#150007"/>
<stop offset="0.374212" stop-color="#160007"/>
<stop offset="0.499779" stop-color="#160007"/>
<stop offset="0.620582" stop-color="#170007"/>
<stop offset="0.705" stop-color="#1D000D"/>
<stop offset="0.865567" stop-color="#31001A"/>
</radialGradient>
</defs>
</svg>
